<svg width="50" height="29" fill="none" xmlns="http://www.w3.org/2000/svg"><path fill-rule="evenodd" clip-rule="evenodd" d="M48.853 1.964C49.2.833 48.853 0 47.197 0h-5.469c-1.391 0-2.033.719-2.38 1.512 0 0-2.782 6.62-6.722 10.92-1.275 1.248-1.854 1.643-2.55 1.643-.348 0-.87-.395-.87-1.528V1.964C29.206.604 28.822 0 27.664 0h-8.6c-.869 0-1.392.63-1.392 1.228 0 1.287 1.971 1.585 2.173 5.206V14.3c0 1.726-.318 2.038-1.014 2.038-1.854 0-6.365-6.65-9.042-14.261C9.271.597 8.746 0 7.348 0H1.875C.312 0 0 .719 0 1.512c0 1.413 1.854 8.43 8.635 17.713C13.156 25.563 19.52 29 25.318 29c3.477 0 3.906-.762 3.906-2.078v-4.79c0-1.527.33-1.832 1.432-1.832.812 0 2.202.398 5.447 3.453C39.812 27.376 40.423 29 42.51 29h5.468c1.563 0 2.346-.762 1.896-2.27-.496-1.5-2.267-3.677-4.614-6.26-1.276-1.47-3.188-3.055-3.77-3.849-.81-1.017-.578-1.47 0-2.376 0 0 6.667-9.168 7.361-12.281h.002z" fill="#C4C4C4"/></svg>