<svg width="50" height="29" viewBox="0 0 50 29" fill="none" xmlns="http://www.w3.org/2000/svg">
<path fill-rule="evenodd" clip-rule="evenodd" d="M48.8531 1.96371C49.199 0.832714 48.8531 0 47.1969 0H41.7283C40.3367 0 39.695 0.718786 39.3471 1.51214C39.3471 1.51214 36.5659 8.13243 32.6264 12.4327C31.3514 13.6797 30.7723 14.0754 30.0765 14.0754C29.7285 14.0754 29.2056 13.6797 29.2056 12.5466V1.96371C29.2056 0.604857 28.8223 0 27.664 0H19.0642C18.1955 0 17.6725 0.629714 17.6725 1.22836C17.6725 2.51471 19.6433 2.813 19.8454 6.43386V14.3011C19.8454 16.0266 19.5267 16.3394 18.8309 16.3394C16.9767 16.3394 12.4664 9.68807 9.78938 2.07764C9.27064 0.596571 8.74565 0 7.34776 0H1.87496C0.312493 0 0 0.718786 0 1.51214C0 2.92486 1.85413 9.94286 8.63524 19.2249C13.156 25.5635 19.5204 29 25.3182 29C28.7952 29 29.2244 28.2377 29.2244 26.9224V22.1311C29.2244 20.6045 29.5535 20.3 30.6556 20.3C31.4681 20.3 32.8576 20.6977 36.1034 23.7531C39.8117 27.376 40.4221 29 42.5095 29H47.9782C49.5406 29 50.3239 28.2377 49.874 26.7297C49.3781 25.23 47.6073 23.0529 45.2595 20.4699C43.9845 18.9991 42.072 17.4145 41.4908 16.6211C40.6804 15.6041 40.9116 15.1504 41.4908 14.2452C41.4908 14.2452 48.1573 5.07707 48.8511 1.96371H48.8531Z" fill="#C4C4C4"/>
</svg>
